<svg xmlns="http://www.w3.org/2000/svg" viewBox="0 0 32 32">
<style type="text/css">
	.st0{fill:#165599;}
	.st1{fill:#FFFFFF;}
</style>
	<path class="st0" d="M6,0h20c3.3,0,6,2.7,6,6v20c0,3.3-2.7,6-6,6H6c-3.3,0-6-2.7-6-6V6C0,2.7,2.7,0,6,0z"/>
	<path class="st1" d="M9.8,6.3h12.3c0.6,0,1.2,0.5,1.2,1.2v2.3c0,0.6-0.5,1.2-1.2,1.2H9.8c-0.6,0-1.2-0.5-1.2-1.2V7.5
		C8.7,6.8,9.2,6.3,9.8,6.3z"/>
	<path class="st1" d="M9.8,13.7h10.9c0.6,0,1.2,0.5,1.2,1.2v2.3c0,0.6-0.5,1.2-1.2,1.2H9.8c-0.6,0-1.2-0.5-1.2-1.2v-2.3
		C8.7,14.2,9.2,13.7,9.8,13.7z"/>
	<path class="st1" d="M9.8,21h12.3c0.6,0,1.2,0.5,1.2,1.2v2.3c0,0.6-0.5,1.2-1.2,1.2H9.8c-0.6,0-1.2-0.5-1.2-1.2v-2.3
		C8.7,21.5,9.2,21,9.8,21z"/>
</svg>
