<svg xmlns="http://www.w3.org/2000/svg" viewBox="0 0 800 800">
	<path d="M727.6,0H72.4C32.4,0,0,32.4,0,72.4v655.3c0,40,32.4,72.4,72.4,72.4h655.3c40,0,72.4-32.4,72.4-72.4V72.4
		C800,32.4,767.6,0,727.6,0z M685,440c0,61.6-50.1,111.7-111.7,111.7c-30.9,0-58.9-12.6-79.1-32.9c-25.9,20.6-58.7,32.9-94.2,32.9
		c-83.6,0-151.7-68-151.7-151.7c0-83.6,68-151.7,151.7-151.7c83.6,0,151.7,68,151.7,151.7v40c0,11.9,9.7,21.7,21.7,21.7
		c11.9,0,21.7-9.7,21.7-21.7v-40c0-107.5-87.5-195-195-195c-107.5,0-195,87.5-195,195c0,107.5,87.5,195,195,195h106.7
		c24.9,0,45,20.1,45,45s-20.1,45-45,45H400c-76.1,0-147.7-29.6-201.5-83.5C144.6,547.7,115,476.1,115,400
		c0-76.1,29.6-147.7,83.5-201.5C252.3,144.6,323.9,115,400,115s147.7,29.6,201.5,83.5C655.4,252.3,685,323.9,685,400V440z"/>
	<path d="M400,338.3c-34,0-61.7,27.7-61.7,61.7s27.7,61.7,61.7,61.7s61.7-27.7,61.7-61.7S434,338.3,400,338.3z"/>
</svg>
