<?xml version="1.0" encoding="utf-8"?>
<!-- Generator: Adobe Illustrator 25.0.0, SVG Export Plug-In . SVG Version: 6.00 Build 0)  -->
<svg version="1.1" id="Layer_1" xmlns="http://www.w3.org/2000/svg" xmlns:xlink="http://www.w3.org/1999/xlink" x="0px" y="0px"
	 viewBox="0 0 20 20" style="enable-background:new 0 0 20 20;" xml:space="preserve">
<style type="text/css">
	.st0{fill:none;stroke:#FFFFFF;stroke-width:2;}
	.st1{fill:none;stroke:#FFFFFF;stroke-width:2.6;}
</style>
<path d="M4,0h12c2.2,0,4,1.8,4,4v12c0,2.2-1.8,4-4,4H4c-2.2,0-4-1.8-4-4V4C0,1.8,1.8,0,4,0z"/>
<path class="st0" d="M6.4,5h7.2C14.9,5,16,5.9,16,7v6c0,1.1-1.1,2-2.4,2H6.4C5.1,15,4,14.1,4,13V7C4,5.9,5.1,5,6.4,5z"/>
<path class="st1" d="M4.6,6l4.9,3.3c0.3,0.2,0.7,0.2,0.9,0L15.4,6"/>
</svg>
