<?xml version="1.0" encoding="utf-8"?>
<!-- Generator: Adobe Illustrator 25.0.0, SVG Export Plug-In . SVG Version: 6.00 Build 0)  -->
<svg version="1.1" id="Layer_1" xmlns="http://www.w3.org/2000/svg" xmlns:xlink="http://www.w3.org/1999/xlink" x="0px" y="0px"
	 viewBox="0 0 800 800" style="enable-background:new 0 0 800 800;" xml:space="preserve">
<path d="M727.6,0H72.4C32.4,0,0,32.4,0,72.4v655.3c0,40,32.4,72.4,72.4,72.4h655.3c40,0,72.4-32.4,72.4-72.4V72.4
	C800,32.4,767.6,0,727.6,0z M580.7,612.3c0,11.3-9.2,20.5-20.5,20.5h-92.3c-11.7,0-21.3-9.5-21.3-21.3V505h-93.2v106.5
	c0,11.7-9.5,21.3-21.3,21.3h-92.3c-11.3,0-20.5-9.2-20.5-20.5V459.6c0-3.7,1.5-7.3,4.1-10L390,283.1c5.5-5.5,14.4-5.5,19.9,0
	l166.6,166.6c2.6,2.6,4.1,6.2,4.1,10V612.3z M641.6,418.1c-5.6,5.6-12.9,8.4-20.3,8.4c-7.3,0-14.6-2.8-20.3-8.4L411.6,228.6
	c-6.1-6.1-17-6.1-23.2,0L198.9,418.1c-11.2,11.2-29.4,11.2-40.5,0c-11.2-11.2-11.2-29.3,0-40.5l189.5-189.5
	c27.8-27.9,76.3-27.9,104.2-0.1l56.4,56.4v-30.2c0-15.8,12.8-28.7,28.6-28.7c15.9,0,28.7,12.8,28.7,28.7v87.5l75.8,75.8
	C652.8,388.8,652.8,407,641.6,418.1z"/>
</svg>
