<svg xmlns="http://www.w3.org/2000/svg" viewBox="0 0 800 800" fill="currentColor">
<path d="M612.5,228.2c-9-17.6-23.1-31.7-40.7-40.7c-5.5-2.8-14.9-6.3-38.5-8.2c-23.4-1.9-54.3-1.9-97-1.9h-72.5
	c-42.7,0-73.6,0-97,1.9c-23.6,1.9-33,5.4-38.5,8.2c-17.6,9-31.7,23.1-40.7,40.7c-2.8,5.5-6.3,14.9-8.2,38.5
	c-1.9,23.4-1.9,54.3-1.9,97v72.5c0,42.7,0,73.6,1.9,97c1.9,23.6,5.4,33,8.2,38.5c9,17.6,23.1,31.7,40.7,40.7
	c5.5,2.8,14.9,6.3,38.5,8.2c23.4,1.9,54.3,1.9,97,1.9h72.5c42.7,0,73.6,0,97-1.9c23.6-1.9,33-5.4,38.5-8.2
	c17.6-9,31.7-23.1,40.7-40.7c2.8-5.5,6.3-14.9,8.2-38.5c1.9-23.4,1.9-54.3,1.9-97v-72.5c0-42.7,0-73.6-1.9-97
	C618.8,243.1,615.3,233.7,612.5,228.2z M400,565.9c-91.5,0-165.9-74.4-165.9-165.9S308.5,234.1,400,234.1
	c91.5,0,165.9,74.4,165.9,165.9S491.5,565.9,400,565.9z M555.4,281c-20.1,0-36.4-16.3-36.4-36.4c0-20.1,16.3-36.4,36.4-36.4
	c20.1,0,36.4,16.3,36.4,36.4C591.8,264.6,575.5,281,555.4,281z"/>
<path d="M727.6,0H72.4C32.4,0,0,32.4,0,72.4v655.3c0,40,32.4,72.4,72.4,72.4h655.3c40,0,72.4-32.4,72.4-72.4V72.4
	C800,32.4,767.6,0,727.6,0z M695.5,436.3c0,88.6,0,133.1-18.1,168.6c-16,31.4-41.1,56.5-72.5,72.5c-35.5,18.1-80,18.1-168.6,18.1
	h-72.5c-88.6,0-133.1,0-168.6-18.1c-31.4-16-56.5-41.1-72.5-72.5c-18.1-35.5-18.1-80-18.1-168.6v-72.5c0-88.6,0-133.1,18.1-168.6
	c16-31.4,41.1-56.5,72.5-72.5c35.5-18.1,80-18.1,168.6-18.1h72.5c88.6,0,133.1,0,168.6,18.1c31.4,16,56.5,41.1,72.5,72.5
	c18.1,35.5,18.1,80,18.1,168.6V436.3z"/>
<circle cx="400" cy="400" r="93.1"/>
</svg>
