<svg xmlns="http://www.w3.org/2000/svg" viewBox="0 0 24 24">
  <path d="M20.447 20.452h-3.554v-5.569c0 -1.328 -0.027 -3.037 -1.852 -3.037-1.853 0 -2.136 1.445 -2.136 2.939 v5.667
  H9.351 V9 h3.414 v1.561 h.046 c.477 -.9 1.637 -1.85 3.37 -1.85 3.601 0 4.267 2.37 4.267 5.455 v6.286 z M5.337 7.433
  a2.062 2.062 0 01 -2.063 -2.065 2.064 2.064 0 11 2.063 2.065 z M7.119 20.452 H3.555 V9 h3.564 v11.452 z M22.225 0 H1.771
  C.792 0 0 .774 0 1.729 v20.542 C0 23.227.792 24 1.771 24 h20.451 C23.2 24 24 23.227 24 22.271 V1.729 C24 .774 23.2 0 22.222 0 h.003 z"/>
</svg>
